<svg width="486" height="213" viewBox="0 0 486 213" fill="none" xmlns="http://www.w3.org/2000/svg">
<path d="M70.2434 72.8641C178.562 131.987 314.756 105.326 392.831 9.70798C401.471 -0.872127 416.752 -3.11352 428.084 4.51359L474.323 35.6192C487.145 44.249 489.84 61.9515 480.251 74.0827C455.8 105.006 426.78 131.525 393.698 153.127C354.063 179.008 310.331 196.761 263.702 205.892C217.073 215.022 169.877 215.07 123.427 206.042C84.6484 198.501 47.7879 184.893 13.4966 165.466C0.0507561 157.846 -4.12007 140.428 4.50687 127.598L35.6253 81.3447C43.2556 70.0086 58.2615 66.3191 70.2434 72.8641Z" fill="#FAF8F5"/>
</svg>
