<svg width="60" height="43" viewBox="0 0 60 43" fill="none" xmlns="http://www.w3.org/2000/svg">
<path d="M1.17612 24.4689L1.17471 24.4782C0.504597 28.6262 1.81688 31.6832 4.18075 34.0108C6.59135 36.3844 10.1324 38.0279 13.9085 39.1502C21.4511 41.3918 29.5061 41.4337 29.9866 41.4337H29.9867H29.9868H29.9869H29.987H29.9871H29.9872H29.9873H29.9874H29.9875H29.9876H29.9877H29.9878H29.9879H29.988H29.9881H29.9882H29.9883H29.9884H29.9885H29.9886H29.9887H29.9888H29.9889H29.989H29.9891H29.9892H29.9893H29.9894H29.9894H29.9895H29.9896H29.9897H29.9898H29.9899H29.99H29.9901H29.9902H29.9903H29.9904H29.9905H29.9906H29.9906H29.9907H29.9908H29.9909H29.991H29.9911H29.9912H29.9913H29.9914H29.9915H29.9915H29.9916H29.9917H29.9918H29.9919H29.992H29.9921H29.9922H29.9923H29.9923H29.9924H29.9925H29.9926H29.9927H29.9928H29.9929H29.9929H29.993H29.9931H29.9932H29.9933H29.9934H29.9935H29.9935H29.9936H29.9937H29.9938H29.9939H29.994H29.994H29.9941H29.9942H29.9943H29.9944H29.9944H29.9945H29.9946H29.9947H29.9948H29.9949H29.9949H29.995H29.9951H29.9952H29.9953H29.9953H29.9954H29.9955H29.9956H29.9956H29.9957H29.9958H29.9959H29.996H29.996H29.9961H29.9962H29.9963H29.9963H29.9964H29.9965H29.9966H29.9967H29.9967H29.9968H29.9969H29.997H29.997H29.9971H29.9972H29.9973H29.9973H29.9974H29.9975H29.9975H29.9976H29.9977H29.9978H29.9978H29.9979H29.998H29.9981H29.9981H29.9982H29.9983H29.9983H29.9984H29.9985H29.9986H29.9986H29.9987H29.9988H29.9988H29.9989H29.999H29.999H29.9991H29.9992H29.9993H29.9993H29.9994H29.9995H29.9995H29.9996H29.9997H29.9997H29.9998H29.9999H29.9999H30H30.0001H30.0001H30.0002H30.0003H30.0003H30.0004H30.0005H30.0005H30.0006H30.0006H30.0007H30.0008H30.0008H30.0009H30.001H30.001H30.0011H30.0012H30.0012H30.0013H30.0013H30.0014H30.0015H30.0015H30.0016H30.0016H30.0017H30.0018H30.0018H30.0019H30.0019H30.002H30.0021H30.0021H30.0022H30.0022H30.0023H30.0024H30.0024H30.0025H30.0025H30.0026H30.0027H30.0027H30.0028H30.0028H30.0029H30.0029H30.003H30.003H30.0031H30.0032H30.0032H30.0033H30.0033H30.0034H30.0034H30.0035H30.0035H30.0036H30.0037H30.0037H30.0038H30.0038H30.0039H30.0039H30.004H30.004H30.0041H30.0041H30.0042H30.0042H30.0043H30.0043H30.0044H30.0044H30.0045H30.0045H30.0046H30.0046H30.0047H30.0047H30.0048H30.0048H30.0049H30.0049H30.005H30.005H30.0051H30.0051H30.0052H30.0052H30.0053H30.0053H30.0054H30.0054H30.0055H30.0055H30.0056H30.0056H30.0057H30.0057H30.0057H30.0058H30.0058H30.0059H30.0059H30.006H30.006H30.0061H30.0061H30.0061H30.0062H30.0062H30.0063H30.0063H30.0064H30.0064H30.0065H30.0065H30.0065H30.0066H30.0066H30.0067H30.0067H30.0067H30.0068H30.0068H30.0069H30.0069H30.007H30.007H30.007H30.0071H30.0071H30.0071H30.0072H30.0072H30.0073H30.0073H30.0073H30.0074H30.0074H30.0075H30.0075H30.0075H30.0076H30.0076H30.0076H30.0077H30.0077H30.0078H30.0078H30.0078H30.0079H30.0079H30.0079H30.008H30.008H30.008H30.0081H30.0081H30.0081H30.0082H30.0082H30.0082H30.0083H30.0083H30.0083H30.0084H30.0084H30.0084H30.0085H30.0085H30.0085H30.0086H30.0086H30.0086H30.0087H30.0087H30.0087H30.0088H30.0088H30.0088H30.0089H30.009H30.009H30.0091H30.0091H30.0092H30.0092H30.0093H30.0094H30.0094H30.0095H30.0095H30.0096H30.0096H30.0097H30.0097H30.0098H30.0098H30.0099H30.0099H30.0099H30.01H30.01H30.0101H30.0101H30.0102H30.0102H30.0102H30.0103H30.0103H30.0103H30.0104H30.0104H30.0105H30.0105H30.0105H30.0106H30.0106H30.0106H30.0107H30.0107H30.0107H30.0108H30.0108H30.0108H30.0109H30.0109H30.0109H30.011H30.011H30.011H30.0111H30.0111H30.0111H30.0112H30.0112H30.0112H30.0113H30.0113C30.5039 41.4337 38.8739 41.3899 46.5411 39.0135C50.3804 37.8236 53.9249 36.0837 56.2385 33.5772C58.5 31.1273 59.6472 27.8841 58.6221 23.4428C58.6063 23.3753 58.5921 23.3138 58.5786 23.255C58.5561 23.1569 58.5353 23.0665 58.5113 22.9691L58.505 22.9438L58.5054 22.9438C58.4902 22.8746 58.476 22.8162 58.4594 22.7479C58.4487 22.7038 58.4371 22.6557 58.4235 22.5979C58.365 22.3503 58.3047 22.1022 58.2435 21.8508L58.2423 21.8476L58.2261 21.7814C58.1318 21.3964 58.0366 21.0128 57.939 20.6313C57.581 20.1895 57.1906 19.7387 56.7696 19.2774C46.2769 7.80797 39.9722 3.17082 36.3431 1.39861L1.17612 24.4689ZM1.17612 24.4689C1.19353 24.3544 1.21281 24.2389 1.23406 24.1204M1.17612 24.4689L1.23406 24.1204M1.23406 24.1204C1.27431 23.9009 1.32208 23.6749 1.3761 23.4415C1.48342 22.9801 1.59273 22.5202 1.7041 22.0577C1.77627 21.7616 1.84739 21.4698 1.92022 21.1805L1.92053 21.1792C1.98896 20.906 2.0567 20.6354 2.12623 20.3633C2.1919 20.1068 2.25635 19.8552 2.32239 19.606L2.32392 19.6011C2.32761 19.5885 2.33198 19.5728 2.33649 19.5545C2.43311 19.1867 2.53167 18.82 2.63308 18.4549C4.30819 17.184 6.13642 15.6754 7.68761 14.1033C9.23483 12.5352 10.598 10.8141 11.1901 9.13473C11.9402 7.00845 12.8254 5.8656 13.6596 5.2902C14.4638 4.73557 15.3311 4.63193 16.257 4.8279C17.2118 5.02997 18.2055 5.54987 19.1446 6.21467C20.0755 6.87365 20.8992 7.63667 21.5107 8.26176L21.5108 8.26187C22.6415 9.4175 24.4205 9.6584 25.8089 8.79645L25.8094 8.7961C27.2754 7.88462 29.2246 6.17894 31.1177 3.0203C32.218 1.18554 34.4783 0.489 36.3428 1.39845L1.23406 24.1204ZM58.224 21.7664L58.2241 21.7668L58.224 21.7664Z" fill="#8589EB" stroke="white"/>
</svg>
