<svg width="60" height="60" viewBox="0 0 60 60" fill="none" xmlns="http://www.w3.org/2000/svg">
<path d="M1.1761 42.0356L1.17469 42.0448C0.504588 46.1928 1.81685 49.2497 4.18068 51.5772C6.59124 53.9508 10.1322 55.5943 13.9083 56.7166C21.4507 58.9581 29.5056 59 29.9861 59H29.9862H29.9863H29.9864H29.9865H29.9866H29.9867H29.9868H29.9869H29.987H29.9871H29.9872H29.9873H29.9874H29.9875H29.9876H29.9877H29.9878H29.9879H29.988H29.9881H29.9882H29.9883H29.9884H29.9885H29.9885H29.9886H29.9887H29.9888H29.9889H29.989H29.9891H29.9892H29.9893H29.9894H29.9895H29.9896H29.9897H29.9898H29.9899H29.9899H29.99H29.9901H29.9902H29.9903H29.9904H29.9905H29.9906H29.9907H29.9908H29.9908H29.9909H29.991H29.9911H29.9912H29.9913H29.9914H29.9915H29.9916H29.9916H29.9917H29.9918H29.9919H29.992H29.9921H29.9922H29.9922H29.9923H29.9924H29.9925H29.9926H29.9927H29.9928H29.9928H29.9929H29.993H29.9931H29.9932H29.9933H29.9933H29.9934H29.9935H29.9936H29.9937H29.9938H29.9938H29.9939H29.994H29.9941H29.9942H29.9943H29.9943H29.9944H29.9945H29.9946H29.9947H29.9947H29.9948H29.9949H29.995H29.9951H29.9951H29.9952H29.9953H29.9954H29.9954H29.9955H29.9956H29.9957H29.9958H29.9958H29.9959H29.996H29.9961H29.9961H29.9962H29.9963H29.9964H29.9964H29.9965H29.9966H29.9967H29.9967H29.9968H29.9969H29.997H29.997H29.9971H29.9972H29.9972H29.9973H29.9974H29.9975H29.9975H29.9976H29.9977H29.9978H29.9978H29.9979H29.998H29.998H29.9981H29.9982H29.9982H29.9983H29.9984H29.9985H29.9985H29.9986H29.9987H29.9987H29.9988H29.9989H29.9989H29.999H29.9991H29.9991H29.9992H29.9993H29.9993H29.9994H29.9995H29.9995H29.9996H29.9997H29.9997H29.9998H29.9999H29.9999H30H30.0001H30.0001H30.0002H30.0002H30.0003H30.0004H30.0004H30.0005H30.0006H30.0006H30.0007H30.0008H30.0008H30.0009H30.0009H30.001H30.0011H30.0011H30.0012H30.0012H30.0013H30.0014H30.0014H30.0015H30.0015H30.0016H30.0017H30.0017H30.0018H30.0018H30.0019H30.002H30.002H30.0021H30.0021H30.0022H30.0022H30.0023H30.0024H30.0024H30.0025H30.0025H30.0026H30.0026H30.0027H30.0028H30.0028H30.0029H30.0029H30.003H30.003H30.0031H30.0031H30.0032H30.0032H30.0033H30.0033H30.0034H30.0035H30.0035H30.0036H30.0036H30.0037H30.0037H30.0038H30.0038H30.0039H30.0039H30.004H30.004H30.0041H30.0041H30.0042H30.0042H30.0043H30.0043H30.0044H30.0044H30.0045H30.0045H30.0046H30.0046H30.0047H30.0047H30.0048H30.0048H30.0049H30.0049H30.0049H30.005H30.005H30.0051H30.0051H30.0052H30.0052H30.0053H30.0053H30.0054H30.0054H30.0055H30.0055H30.0055H30.0056H30.0056H30.0057H30.0057H30.0058H30.0058H30.0058H30.0059H30.0059H30.006H30.006H30.0061H30.0061H30.0061H30.0062H30.0062H30.0063H30.0063H30.0063H30.0064H30.0064H30.0065H30.0065H30.0065H30.0066H30.0066H30.0067H30.0067H30.0067H30.0068H30.0068H30.0069H30.0069H30.0069H30.007H30.007H30.007H30.0071H30.0071H30.0072H30.0072H30.0072H30.0073H30.0073H30.0073H30.0074H30.0074H30.0074H30.0075H30.0075H30.0076H30.0076H30.0076H30.0077H30.0077H30.0077H30.0078H30.0078H30.0078H30.0079H30.0079H30.0079H30.008H30.008H30.008H30.008H30.0081H30.0081H30.0081H30.0082H30.0082H30.0082H30.0083H30.0083H30.0083H30.0084H30.0084H30.0084H30.0084H30.0085H30.0085H30.0085H30.0086H30.0086H30.0086H30.0087H30.0088H30.0088H30.0089H30.0089H30.009H30.009H30.0091H30.0091H30.0092H30.0092H30.0093H30.0093H30.0094H30.0094H30.0094H30.0095H30.0095H30.0096H30.0096H30.0097H30.0097H30.0097H30.0098H30.0098H30.0098H30.0099H30.0099H30.01H30.01H30.01H30.0101H30.0101H30.0101H30.0101H30.0102H30.0102H30.0102H30.0103H30.0103H30.0104H30.0104H30.0104H30.0105H30.0105H30.0105H30.0106H30.0106H30.0106H30.0107H30.0107H30.0107H30.0108H30.0108C30.5033 59 38.8732 58.9562 46.5403 56.5799C50.3795 55.39 53.9239 53.6501 56.2376 51.1437C58.499 48.6939 59.6461 45.4507 58.6212 41.0096C58.6053 40.9421 58.5911 40.8805 58.5777 40.8218C58.5551 40.7236 58.5343 40.6332 58.5103 40.5358L58.504 40.5105L58.5043 40.5104C58.4892 40.4413 58.475 40.3828 58.4584 40.3145C58.4477 40.2705 58.436 40.2223 58.4225 40.1646C58.364 39.917 58.3037 39.6689 58.2425 39.4174L58.2413 39.4143L58.2251 39.3481C58.1137 38.8931 58.0009 38.4402 57.8846 37.9903L57.8839 37.9874C56.7711 33.6274 55.4177 29.3428 53.6663 25.2374L53.6661 25.2368C52.137 21.6462 50.2044 18.4067 47.9418 15.1932C44.6062 10.4584 40.7781 5.45567 35.9755 2.56976L35.975 2.56944C34.1695 1.48303 32.0885 0.841286 30.0957 1.0341L29.9994 1.04342L29.9031 1.0341C27.9101 0.841273 25.8272 1.48312 24.0219 2.56944L24.0214 2.56976C19.2188 5.45567 15.3907 10.4584 12.0551 15.1932C9.79265 18.4065 7.85998 21.646 6.32896 25.2367L1.1761 42.0356ZM1.1761 42.0356C1.19351 41.921 1.21278 41.8055 1.23404 41.6871M1.1761 42.0356L1.23404 41.6871M1.23404 41.6871C1.27427 41.4677 1.322 41.2418 1.37598 41.0085C1.48334 40.5471 1.59268 40.087 1.70409 39.6243C1.77625 39.3282 1.84736 39.0364 1.92019 38.7472L1.9205 38.7459C1.98888 38.4728 2.05659 38.2024 2.12607 37.9305C2.19178 37.6739 2.25627 37.4221 2.32234 37.1728L2.32388 37.1678C2.32757 37.1552 2.33194 37.1395 2.33645 37.1212C2.46141 36.6455 2.58963 36.1716 2.72303 35.7008L2.72322 35.7008L2.72838 35.6811C2.746 35.6137 2.75974 35.5614 2.77434 35.5111L2.77439 35.5111L2.77705 35.5016C3.75673 32.0003 4.91418 28.5603 6.32873 25.2372L1.23404 41.6871ZM58.223 39.3331L58.2231 39.3337L58.223 39.3331Z" fill="url(#paint0_radial_1_3484)" stroke="white"/>
<defs>
<radialGradient id="paint0_radial_1_3484" cx="0" cy="0" r="1" gradientUnits="userSpaceOnUse" gradientTransform="translate(29.9991 30.0003) scale(29.8148 30.1882)">
<stop offset="2.23767e-07" stop-color="#CFCFFA"/>
<stop offset="1" stop-color="#767FF7"/>
</radialGradient>
</defs>
</svg>
