<svg width="44" height="44" viewBox="0 0 44 44" fill="none" xmlns="http://www.w3.org/2000/svg">
<path d="M40.6407 15.0119L25.4565 1.63827C23.2873 -0.530913 19.7557 -0.530913 17.6761 1.54863L2.3126 15.1015C0.824646 16.5895 0 18.5794 0 20.6948V38.6039C0 41.5798 2.42016 44 5.39606 44H37.6648C40.6228 44 43.043 41.5798 43.043 38.6039V20.6948C43.043 18.5794 42.2183 16.5895 40.6407 15.0119ZM39.4575 38.6039C39.4575 39.6079 38.6508 40.4146 37.6648 40.4146H26.299V28.8695C26.299 27.8298 25.4744 27.0051 24.4346 27.0051H18.6083C17.5865 27.0051 16.7439 27.8298 16.7439 28.8695V40.4146H5.39606C4.39214 40.4146 3.58542 39.6079 3.58542 38.6039V20.6948C3.58542 19.5654 4.05152 18.436 4.76861 17.7009L20.1321 4.16599C20.5086 3.78952 20.9926 3.59232 21.4946 3.59232C22.0324 3.59232 22.5702 3.80744 23.0005 4.2377L38.1847 17.6292C39.0094 18.4539 39.4575 19.5474 39.4575 20.6948V38.6039Z" fill="#98A1BD"/>
</svg>
