<svg width="33" height="33" viewBox="0 0 33 33" fill="none" xmlns="http://www.w3.org/2000/svg">
<path d="M16.5174 32.6637C15.4041 32.6637 5.6946 32.5359 1.71589 27.8454C0.292309 26.1663 -0.25522 24.0675 0.1098 21.7861L0.146302 21.5853C0.182804 21.4211 0.201054 21.2751 0.237556 21.129L0.912842 18.4644C1.49687 16.4385 2.09916 14.723 2.77444 13.1169C3.52273 11.3648 4.49003 9.68569 5.82235 7.84234C7.53795 5.45146 9.60031 2.75032 12.3745 1.08948C13.3053 0.54195 14.7653 -0.0968335 16.4809 0.0126723C18.2148 -0.0968335 19.6566 0.523699 20.5874 1.08948C23.252 2.67731 25.3144 5.26895 27.1577 7.84234C28.4718 9.68569 29.4391 11.3648 30.2056 13.1169C31.0452 15.0515 31.757 17.1868 32.3775 19.6142L32.7608 21.129C33.3266 23.5747 32.8885 25.8195 31.4467 27.6264C27.5958 32.5359 17.649 32.6637 16.5174 32.6637ZM4.25277 20.1435L3.74174 22.2424C3.52273 23.6294 3.75999 24.6332 4.50828 25.491C6.97217 28.3929 14.017 29.0317 16.5174 29.0317H16.5357C19.0908 29.0317 26.2634 28.3747 28.6361 25.3815C29.3844 24.4507 29.5669 23.3557 29.2384 21.9686L28.8916 20.545C28.3076 18.3001 27.6505 16.3473 26.9022 14.5769C26.2452 13.0621 25.4056 11.602 24.2376 9.95945C22.741 7.86059 20.9707 5.52447 18.7805 4.22865C18.0505 3.80887 17.3205 3.60811 16.6817 3.66287L16.5174 3.68112L16.3349 3.66287C15.7144 3.60811 14.9661 3.80887 14.2726 4.22865C12.1007 5.52447 10.3121 7.86059 8.81551 9.95945C7.64745 11.602 6.80791 13.0621 6.15087 14.5769C5.53034 16.0188 4.98281 17.5884 4.47178 19.377L4.25277 20.1435Z" fill="#98A1BD"/>
</svg>
