<svg width="24" height="24" viewBox="0 0 24 24" fill="none" xmlns="http://www.w3.org/2000/svg">
<path d="M20.3105 0.0553415C20.1076 0.0184468 19.9047 0 19.7018 0H11.2529C5.05458 0 0 5.03612 0 11.2529V12.2675C0 18.4658 5.05458 23.5203 11.2529 23.5203H12.7471C16.9162 23.5203 20.5872 21.2329 22.5058 17.8201C23.465 16.1783 24 14.2967 24 12.2675V4.27978C24 2.12144 22.3766 0.332051 20.3105 0.0553415ZM20.3105 12.2675C20.3105 16.4366 16.9162 19.8309 12.7471 19.8309H11.2529C7.08378 19.8309 3.68946 16.4366 3.68946 12.2675V11.2529C3.68946 7.08377 7.08378 3.68946 11.2529 3.68946H19.7018C20.0338 3.68946 20.3105 3.94773 20.3105 4.27978V12.2675Z" fill="#98A1BD"/>
</svg>
