<svg width="39" height="47" viewBox="0 0 39 47" fill="none" xmlns="http://www.w3.org/2000/svg">
<path d="M8.6636 11.0443C8.6636 17.0184 13.5225 21.8738 19.5004 21.8738C25.4786 21.8738 30.3371 17.0036 30.3371 11.0298C30.3371 5.05567 25.4782 0.200296 19.5004 0.200296C13.5223 0.200296 8.6636 5.05585 8.6636 11.0443ZM11.9547 11.0298C11.9547 6.88007 15.3335 3.48944 19.5004 3.48944C23.6672 3.48944 27.046 6.88007 27.046 11.0298C27.046 15.1793 23.653 18.5702 19.5004 18.5702C15.3477 18.5702 11.9547 15.1793 11.9547 11.0298Z" fill="#98A1BD" stroke="#98A1BD" stroke-width="0.2"/>
<path d="M29.5668 46.4915H9.43321C4.22383 46.4915 0 41.729 0 35.8552C0 29.9813 4.24142 25.2188 9.43321 25.2188H29.5668C34.7762 25.2188 39 30.0012 39 35.8552C39 41.7091 34.7762 46.4915 29.5668 46.4915ZM9.43321 29.1876C6.17734 29.1876 3.51985 32.184 3.51985 35.8552C3.51985 39.5263 6.17734 42.5227 9.43321 42.5227H29.5668C32.8226 42.5227 35.4801 39.5263 35.4801 35.8552C35.4801 32.184 32.8226 29.1876 29.5668 29.1876H9.43321Z" fill="#98A1BD"/>
</svg>
