<svg width="46" height="44" viewBox="0 0 46 44" fill="none" xmlns="http://www.w3.org/2000/svg">
<path d="M22.9522 44C10.2932 44 0 33.7068 0 21.0655C0 12.0611 5.29667 3.8513 13.5065 0.143636C14.0008 -0.0858859 14.5658 -0.0329193 15.0249 0.249569C15.4839 0.532058 15.7664 1.02641 15.7664 1.57373C16.0312 13.809 26.2185 23.7844 38.4714 23.7844C40.2017 23.7844 41.9319 23.5902 43.6269 23.1841C44.1389 23.0605 44.7038 23.2018 45.0923 23.5725C45.4807 23.9433 45.6572 24.473 45.569 25.0026C43.6622 36.0197 34.1635 44 22.9522 44ZM12.7473 4.15144C6.88566 7.70021 3.19566 14.1092 3.19566 21.0655C3.19566 31.9413 12.0587 40.8043 22.9522 40.8043C31.7976 40.8043 39.4248 35.0133 41.8789 26.7505C40.749 26.9094 39.6014 26.9801 38.4714 26.9801C25.3357 26.9801 14.2833 16.9517 12.7473 4.15144Z" fill="#E6E7F2"/>
</svg>
